<svg width="110" height="111" viewBox="0 0 110 111" fill="none" xmlns="http://www.w3.org/2000/svg">
<g clip-path="url(#clip0)">
<path d="M2.09912 15.0942V44.2937L25.8237 57.0685V27.869L2.09912 15.0942Z" fill="#21BBB0"/>
<path d="M2.09912 15.0942L25.8237 27.869L49.5483 15.0942L25.8237 2.31946L2.09912 15.0942Z" fill="#21BBB0"/>
<path d="M25.8237 57.0685L49.5483 44.2937V15.0942L25.8237 27.869V57.0685Z" fill="#21BBB0"/>
<path d="M60.498 66.1935V95.393L84.2227 108.168V78.9683L60.498 66.1935Z" fill="#21BBB0"/>
<path d="M60.498 66.1935L84.2226 78.9683L107.947 66.1935L84.2226 53.4187L60.498 66.1935Z" fill="#21BBB0"/>
<path d="M84.2227 108.168L107.947 95.393V66.1935L84.2227 78.9683V108.168Z" fill="#21BBB0"/>
<path d="M51.3731 45.3881V13.9992L25.8235 0.245972L0.273926 13.9992V45.3881L25.8235 59.1467L51.3731 45.3881ZM27.6485 54.013V28.9634L47.7231 18.1544V43.1987L27.6485 54.013ZM45.6985 15.0943L25.8235 25.7955L5.94755 15.0943L25.8235 4.39225L45.6985 15.0943ZM3.92386 18.149L23.9985 28.9634V54.013L3.92386 43.1987V18.149Z" fill="#006686"/>
<path d="M84.2229 51.3452L58.6733 65.0984V96.4873L84.2229 110.246L109.772 96.4873V65.0984L84.2229 51.3452ZM104.098 66.1936L84.2229 76.8948L64.347 66.1936L84.2229 55.4915L104.098 66.1936ZM62.3233 69.2483L82.3979 80.0626V105.112L62.3233 94.2979V69.2483ZM86.0479 105.112V80.0626L106.123 69.2536V94.2979L86.0479 105.112Z" fill="#006686"/>
<path d="M96.9977 26.0442V41.7115L94.9517 39.6655L92.3711 42.2461L98.8226 48.7004L105.273 42.2461L102.693 39.6655L100.648 41.7115V26.0442C100.64 18.992 94.9241 13.2774 87.8728 13.2694H58.6733V16.9193H87.8728C92.9093 16.9247 96.9914 21.0068 96.9977 26.0442Z" fill="#006686"/>
<path d="M13.049 84.4431V68.7749L15.094 70.8209L17.6747 68.2402L11.224 61.786L4.77246 68.2402L7.35308 70.8209L9.39904 68.7749V84.4431C9.40706 91.4943 15.1217 97.2089 22.1738 97.2179H51.3733V93.5679H22.1738C17.1364 93.5617 13.0543 89.4796 13.049 84.4431Z" fill="#006686"/>
<path d="M60.4981 55.2437C60.4981 52.2193 58.0467 49.7688 55.0232 49.7688C51.9989 49.7688 49.5483 52.2193 49.5483 55.2437C49.5483 58.2672 51.9989 60.7186 55.0232 60.7186C58.0467 60.7186 60.4981 58.2672 60.4981 55.2437ZM55.0232 57.0687C54.0154 57.0687 53.1983 56.2515 53.1983 55.2437C53.1983 54.235 54.0154 53.4187 55.0232 53.4187C56.0311 53.4187 56.8482 54.235 56.8482 55.2437C56.8482 56.2515 56.0311 57.0687 55.0232 57.0687Z" fill="#006686"/>
</g>
<defs>
<clipPath id="clip0">
<rect y="0.245972" width="110" height="110" fill="white"/>
</clipPath>
</defs>
</svg>
