<svg width="110" height="111" fill="none" xmlns="http://www.w3.org/2000/svg"><g clip-path="url(#clip0)"><path d="M75.191 36.624a3.438 3.438 0 00-3.437-3.437H37.379a3.438 3.438 0 000 6.875h34.375a3.438 3.438 0 003.437-3.438z" fill="#E48AC5"/><path d="M37.379 40.062v20.625A10.313 10.313 0 0047.69 71h13.75a10.312 10.312 0 0010.313-10.313V40.062H37.379z" fill="#E48AC5"/><path d="M61.44 74.437v-3.438H47.69v3.438a3.438 3.438 0 003.438 3.438h6.875a3.437 3.437 0 003.438-3.438z" fill="#E48AC5"/><path d="M51.129 77.874h6.875v27.501h-6.875v-27.5z" fill="#E48AC5"/><path d="M58.003 64.125a1.719 1.719 0 00-1.718-1.72H44.253a1.719 1.719 0 000 3.438h12.032a1.719 1.719 0 001.718-1.718zM44.253 58.968h12.032a1.719 1.719 0 000-3.437H44.253a1.718 1.718 0 100 3.437zM87.222 21.156h4.674l-2.903 11.613a1.718 1.718 0 002.882 1.633l13.75-13.75c.241-.24.404-.546.47-.88a1.713 1.713 0 00-.73-1.764 1.72 1.72 0 00-.955-.29h-3.209L102.678 5.9a1.72 1.72 0 00-2.922-1.428l-13.75 13.75a1.718 1.718 0 001.216 2.934zm11.423-10.711l-1.096 8.779a1.718 1.718 0 001.705 1.932h1.007l-6.428 6.428 1.932-7.735a1.717 1.717 0 00-1.668-2.13h-2.725l7.273-7.275zM21.91 89.906h-3.209l1.476-11.818a1.718 1.718 0 00-2.921-1.429L3.506 90.41a1.718 1.718 0 001.217 2.934h4.673l-2.903 11.614a1.717 1.717 0 001.898 2.12 1.72 1.72 0 00.984-.487l13.75-13.75a1.719 1.719 0 00-1.215-2.934zM11.333 99.77l1.932-7.734a1.717 1.717 0 00-1.668-2.131H8.873l7.273-7.274-1.096 8.78a1.718 1.718 0 001.705 1.931h1.007l-6.428 6.428zM4.724 12.563H8.16v3.438a1.719 1.719 0 003.438 0v-3.438h3.437a1.719 1.719 0 000-3.437H11.6V5.688a1.718 1.718 0 10-3.438 0v3.438H4.724a1.719 1.719 0 100 3.437zM29.357 27.343c-.428.382-.844.774-1.253 1.174a1.717 1.717 0 001.168 2.984 1.72 1.72 0 001.232-.524c.374-.364.755-.72 1.143-1.07a1.72 1.72 0 10-2.293-2.56l.003-.004z" fill="#AE4B8C"/><path d="M92.379 55.53a1.719 1.719 0 00-3.438 0 34.154 34.154 0 01-29.219 33.946V79.277a5.156 5.156 0 003.438-4.84v-1.856a12.031 12.031 0 0010.313-11.894V41.465a5.144 5.144 0 00-1.72-9.997h-1.718V16a5.156 5.156 0 00-10.313 0v15.47H49.41v-15.47a5.156 5.156 0 00-10.313 0v15.47H37.38a5.144 5.144 0 00-1.719 9.995v19.223a12.031 12.031 0 0010.313 11.894v1.856a5.156 5.156 0 003.437 4.84v10.2A34.343 34.343 0 0126.736 35.35a1.719 1.719 0 00-2.777-2.025A37.775 37.775 0 0049.41 92.943v12.432a1.719 1.719 0 003.438 0V79.593h3.437v25.782a1.719 1.719 0 003.438 0V92.943A37.574 37.574 0 0092.379 55.53zM63.16 16a1.718 1.718 0 113.438 0v15.468H63.16V16zm-20.625 0a1.718 1.718 0 113.438 0v15.468h-3.438V16zm-5.156 18.906h34.375a1.719 1.719 0 110 3.437H37.379a1.719 1.719 0 010-3.437zm1.718 25.781V41.781h30.938v18.906a8.604 8.604 0 01-8.594 8.594h-13.75a8.605 8.605 0 01-8.594-8.594zM51.13 76.156a1.719 1.719 0 01-1.719-1.719v-1.719h10.313v1.719a1.719 1.719 0 01-1.72 1.719H51.13z" fill="#AE4B8C"/><path d="M89.221 45.268a1.72 1.72 0 00-1.26 2.078c.133.54.251 1.086.358 1.635a1.719 1.719 0 003.376-.65 31.293 31.293 0 00-.396-1.803 1.719 1.719 0 00-2.078-1.26zM66.183 102.245c-.549.135-1.1.261-1.657.379a1.723 1.723 0 00-1.351 1.854 1.72 1.72 0 001.695 1.546 1.62 1.62 0 00.354-.036c.596-.125 1.19-.261 1.78-.407a1.73 1.73 0 001.068-.779 1.72 1.72 0 00-1.223-2.593 1.695 1.695 0 00-.672.036h.006zM104.41 53.812a1.717 1.717 0 00-1.719 1.719 47.864 47.864 0 01-30.528 44.808 1.717 1.717 0 00-.47 2.918 1.686 1.686 0 001.72.278 51.284 51.284 0 0032.716-48.004 1.716 1.716 0 00-1.719-1.719zM51.129 7.523h.117a48.242 48.242 0 011.662-.083 1.719 1.719 0 001.658-1.782 1.682 1.682 0 00-1.777-1.659c-.595.02-1.186.05-1.775.09a1.72 1.72 0 10.113 3.437l.002-.003zM4.723 57.25a1.719 1.719 0 001.718-1.72A48.316 48.316 0 0144.608 8.438a1.72 1.72 0 10-.708-3.364A51.767 51.767 0 003.004 55.531a1.719 1.719 0 001.719 1.719zM104.41 98.5h-3.437v-3.438a1.716 1.716 0 00-1.72-1.719 1.718 1.718 0 00-1.718 1.719V98.5h-3.437a1.719 1.719 0 100 3.437h3.437v3.438a1.719 1.719 0 003.438 0v-3.438h3.437a1.718 1.718 0 100-3.438zM63.16 58.968h1.719a1.719 1.719 0 000-3.437H63.16a1.718 1.718 0 100 3.437zM63.16 65.843h1.719a1.719 1.719 0 000-3.437H63.16a1.719 1.719 0 100 3.437z" fill="#AE4B8C"/></g><defs><clipPath id="clip0"><path fill="#fff" d="M0 .378h110v110H0z"/></clipPath></defs></svg>