<svg width="111" height="111" viewBox="0 0 111 111" fill="none" xmlns="http://www.w3.org/2000/svg">
<g clip-path="url(#clip0)">
<path d="M55.8728 97.8339C44.6913 97.8375 33.9681 93.3928 26.0686 85.4791L18.2783 93.2693C39.0464 114.02 72.6992 114.02 93.4673 93.2693L85.6771 85.4791C77.7776 93.3928 67.0543 97.8375 55.8728 97.8339Z" fill="#EFAF36"/>
<path d="M85.6772 25.8706C93.5875 33.7718 98.0321 44.4942 98.0321 55.6748C98.0321 66.8554 93.5875 77.5778 85.6772 85.479L93.4675 93.2693C114.218 72.5012 114.218 38.8484 93.4675 18.0803L85.6772 25.8706Z" fill="#EFAF36"/>
<path d="M55.8728 13.5157C67.0543 13.5121 77.7776 17.9568 85.6771 25.8706L93.4673 18.0803C72.6992 -2.66988 39.0464 -2.66988 18.2783 18.0803L26.0686 25.8706C33.9681 17.9568 44.6913 13.5121 55.8728 13.5157Z" fill="#EFAF36"/>
<path d="M13.7139 55.6748C13.7103 44.4933 18.155 33.77 26.0687 25.8706L18.2785 18.0803C-2.47173 38.8484 -2.47173 72.5012 18.2785 93.2693L26.0687 85.479C18.155 77.5796 13.7103 66.8563 13.7139 55.6748Z" fill="#EFAF36"/>
<path d="M33.877 42.8438L55.873 58.4064L77.8691 42.8438L55.873 27.2812L33.877 42.8438Z" fill="#EFAF36"/>
<path d="M52.0056 55.6748L33.877 42.8438V68.5058L55.873 84.0685V58.4064L52.0056 55.6748Z" fill="#EFAF36"/>
<path d="M55.873 58.4064V84.0685L77.8691 68.5058V42.8438L59.7404 55.6748L55.873 58.4064Z" fill="#EFAF36"/>
<path d="M59.7404 55.6748L77.8691 42.8438L55.873 58.4064L59.7404 55.6748Z" fill="#EFAF36"/>
<path d="M55.873 58.4064L33.877 42.8438L52.0056 55.6748L55.873 58.4064Z" fill="#EFAF36"/>
<path d="M94.7628 16.7836C73.2841 -4.69608 38.4605 -4.69608 16.9818 16.7836C-4.49784 38.2623 -4.49784 73.0858 16.9818 94.5646C38.4605 116.044 73.2841 116.044 94.7628 94.5646C116.242 73.0858 116.242 38.2623 94.7628 16.7836ZM93.4364 90.6533L88.2354 85.455C103.74 68.6349 103.74 42.7311 88.2354 25.9119L93.4364 20.7127C111.779 40.4184 111.779 70.9476 93.4364 90.6533ZM55.8723 96.0002C36.6222 96.01 20.0464 82.4191 16.2837 63.5404C12.521 44.6617 22.6195 25.7544 40.4018 18.383C58.185 11.0116 78.6981 17.2302 89.3954 33.2341C100.093 49.2388 97.9929 70.5708 84.3814 84.1832C76.8337 91.7649 66.5705 96.0199 55.8723 96.0002ZM90.8426 18.11L85.6443 23.311C68.8242 7.80648 42.9204 7.80648 26.1003 23.311L20.902 18.11C40.6077 -0.232606 71.1369 -0.232606 90.8426 18.11ZM18.3082 20.7038L23.5092 25.902C8.00473 42.7222 8.00473 68.6259 23.5092 85.4461L18.3082 90.6444C-0.0343633 70.9387 -0.0343633 40.4095 18.3082 20.7038ZM20.902 93.2381L26.1003 88.0372C42.9204 103.542 68.8242 103.542 85.6443 88.0372L90.8426 93.2381C71.1369 111.581 40.6077 111.581 20.902 93.2381Z" fill="#BF7910"/>
<path d="M81.4206 42.2262C81.3675 42.0696 81.2855 41.9219 81.1775 41.7912C81.1187 41.7143 81.0521 41.6409 80.9798 41.5737C80.9325 41.5281 80.8824 41.4851 80.8293 41.4448C80.7879 41.4144 80.757 41.3759 80.7136 41.3482L57.011 25.7838C56.3262 25.3345 55.411 25.3345 54.7271 25.7838L31.0245 41.3482C30.9811 41.3759 30.9493 41.4144 30.9078 41.4448C30.8664 41.4762 30.8056 41.5281 30.7564 41.5737C30.6841 41.6409 30.6175 41.7143 30.5587 41.7912C30.5172 41.8405 30.4796 41.8924 30.4459 41.9452C30.3928 42.0347 30.3485 42.1278 30.3137 42.2244C30.2935 42.2754 30.2684 42.3229 30.252 42.3748C30.2115 42.5278 30.1922 42.6854 30.1951 42.8438V68.5058C30.1951 69.1001 30.5057 69.6577 31.0284 70.0014L54.731 85.5659C54.8101 85.607 54.8911 85.6437 54.9741 85.6759C55.0416 85.7126 55.111 85.7449 55.1833 85.7726C55.626 85.9445 56.1237 85.9445 56.5664 85.7726C56.6387 85.7449 56.7082 85.7126 56.7757 85.6759C56.8586 85.6437 56.9396 85.607 57.0187 85.5659L80.7213 70.0014C81.2421 69.6568 81.5517 69.0992 81.5508 68.5058V42.8438C81.5498 42.6854 81.5266 42.5278 81.4813 42.3748C81.4659 42.3229 81.4398 42.2754 81.4206 42.2262ZM55.8729 29.5249L76.1565 42.8438L55.8729 56.1626L35.5893 42.8438L55.8729 29.5249ZM34.1455 46.389L53.8977 59.3569V80.5287L34.1455 67.5562V46.389ZM77.6003 67.5562L57.8481 80.5269V59.3551L77.6003 46.3872V67.5562Z" fill="#BF7910"/>
</g>
<defs>
<clipPath id="clip0">
<rect x="0.873047" y="0.674805" width="110" height="110" fill="white"/>
</clipPath>
</defs>
</svg>
