<svg width="111" height="111" fill="none" xmlns="http://www.w3.org/2000/svg"><g clip-path="url(#clip0)"><path d="M86.66 69.425l10.931-10.931a5.159 5.159 0 10-7.287-7.305l-3.644 3.644-3.644-3.644a5.157 5.157 0 00-6.668-.533v8.456L86.66 69.425zM79.785 5.831H31.66a6.875 6.875 0 00-6.875 6.875v25.781h5.156V14.425a3.448 3.448 0 013.438-3.438h8.606a3.391 3.391 0 013.425 3.384 3.462 3.462 0 003.438 3.491h13.75a3.407 3.407 0 003.437-3.396 3.463 3.463 0 013.438-3.479h8.593a3.448 3.448 0 013.438 3.438v24.062h5.156v-25.78a6.875 6.875 0 00-6.875-6.876zM81.504 79.737v5.157a3.448 3.448 0 01-3.438 3.437H33.38a3.448 3.448 0 01-3.438-3.437v-5.157h-5.156V91.77a6.875 6.875 0 006.875 6.875h48.125a6.875 6.875 0 006.875-6.875V79.737h-5.156z" fill="#7DE0FF"/><path d="M79.785 98.644H31.66a6.875 6.875 0 01-6.875-6.875v6.875a6.875 6.875 0 006.875 6.875h48.125a6.877 6.877 0 006.875-6.875v-6.875a6.875 6.875 0 01-6.875 6.875z" fill="#2076C6"/><path d="M31.66 70.697v-1.272a6.875 6.875 0 00-13.75 0v1.272a11.995 11.995 0 0013.75 0zM67.874 38.075L63.01 33.21l-3.85 3.85v-5.449h-6.875v5.449l-3.85-3.85-4.864 4.864 3.85 3.85h-5.448V48.8h5.448l-3.85 3.85 4.864 4.864 3.85-3.85v5.448h6.875v-5.448l3.85 3.85 4.864-4.864-3.85-3.85h5.449v-6.875h-5.449l3.85-3.85zM55.723 48.8a3.438 3.438 0 110-6.876 3.438 3.438 0 010 6.876z" fill="#7DE0FF"/><path d="M55.723 48.8a3.438 3.438 0 100-6.875 3.438 3.438 0 000 6.875zM24.785 60.831a3.438 3.438 0 100-6.875 3.438 3.438 0 000 6.875z" fill="#7DE0FF"/><path d="M102.129 36.769h-13.75V12.706a8.604 8.604 0 00-8.594-8.594H31.66a8.604 8.604 0 00-8.594 8.594V36.77H9.316a5.156 5.156 0 00-5.156 5.156V76.3a5.156 5.156 0 005.156 5.156h13.75v17.188a8.603 8.603 0 008.594 8.593h48.125a8.601 8.601 0 008.594-8.593V81.456h13.75a5.157 5.157 0 005.156-5.156V41.925a5.156 5.156 0 00-5.156-5.156zM26.504 12.706A5.156 5.156 0 0131.66 7.55h48.125a5.156 5.156 0 015.156 5.156V36.77h-1.718V14.425a5.156 5.156 0 00-5.157-5.156h-8.593a5.183 5.183 0 00-5.157 5.218 1.59 1.59 0 01-.467 1.136 1.769 1.769 0 01-1.251.52h-13.75a1.674 1.674 0 01-1.224-.525 1.649 1.649 0 01-.495-1.22 4.96 4.96 0 00-1.447-3.583 5.219 5.219 0 00-3.697-1.546h-8.606a5.156 5.156 0 00-5.156 5.156v22.344h-1.72V12.706zm41.25 68.75h12.031v3.438a1.718 1.718 0 01-1.719 1.718H33.38a1.719 1.719 0 01-1.719-1.718v-3.438h12.031a5.156 5.156 0 005.157-5.156v-8.594h13.75V76.3a5.156 5.156 0 005.156 5.156zM48.848 64.27H38.535a1.719 1.719 0 01-1.719-1.72V28.176a1.719 1.719 0 011.72-1.719H72.91a1.718 1.718 0 011.719 1.719V62.55a1.719 1.719 0 01-1.719 1.719H48.848zm-24.063-5.157a1.718 1.718 0 110-3.436 1.718 1.718 0 010 3.436zm0 5.157a5.144 5.144 0 015.156 5.156v.297a10.442 10.442 0 01-10.312 0v-.297a5.157 5.157 0 015.156-5.156zM33 67.036a8.344 8.344 0 00-5.058-5.595 5.156 5.156 0 10-6.305 0 8.593 8.593 0 00-5.065 5.59 10.296 10.296 0 012.23-14.68 10.292 10.292 0 0114.578 2.82v7.379c.004.944.27 1.868.767 2.67-.025.042-.064.068-.085.112A9.935 9.935 0 0133 67.036zM78.066 51.66a3.416 3.416 0 013.735.743l3.644 3.644a1.719 1.719 0 002.43 0l3.644-3.644a3.44 3.44 0 114.857 4.874l-9.716 9.717-8.594-8.594v-6.74zM72.91 23.02H38.535a5.156 5.156 0 00-5.156 5.156v8.594H31.66V14.425a1.718 1.718 0 011.719-1.719h8.606a1.757 1.757 0 011.248.516 1.546 1.546 0 01.458 1.124 5.183 5.183 0 005.157 5.235h13.75a5.23 5.23 0 003.695-1.547 4.997 4.997 0 001.46-3.587 1.679 1.679 0 01.527-1.246 1.645 1.645 0 011.193-.495h8.593a1.718 1.718 0 011.72 1.719v22.344h-1.72v-8.594a5.156 5.156 0 00-5.156-5.156zM7.598 76.299V41.926a1.719 1.719 0 011.718-1.719H33.38v9.931a13.733 13.733 0 10-16.462 21.964 13.698 13.698 0 0019.92-4.704 5.11 5.11 0 001.698.31h6.875V76.3a1.718 1.718 0 01-1.719 1.719H9.316a1.719 1.719 0 01-1.718-1.72zM79.785 103.8H31.66a5.156 5.156 0 01-5.156-5.156v-.045a8.503 8.503 0 005.156 1.763h48.125a8.502 8.502 0 005.156-1.763v.045a5.157 5.157 0 01-5.156 5.156zm5.156-12.031a5.156 5.156 0 01-5.156 5.156H31.66a5.156 5.156 0 01-5.156-5.156V81.456h1.719v3.438a5.156 5.156 0 005.156 5.156h44.687a5.156 5.156 0 005.157-5.156v-3.438h1.718V91.77zm18.907-15.47a1.716 1.716 0 01-1.719 1.72H67.754a1.718 1.718 0 01-1.719-1.72v-8.593h6.875a5.146 5.146 0 005.091-4.51l7.444 7.444a1.719 1.719 0 002.43 0l10.932-10.931a6.87 6.87 0 002.018-4.862 6.871 6.871 0 00-4.24-6.358 6.877 6.877 0 00-7.496 1.485l-2.429 2.435-2.428-2.428a6.826 6.826 0 00-6.166-1.882v-7.893h24.063a1.717 1.717 0 011.719 1.719V76.3z" fill="#204782"/><path d="M69.473 40.206h-1.3l.916-.916a1.719 1.719 0 000-2.43l-4.864-4.864a1.719 1.719 0 00-2.43 0l-.916.916v-1.3a1.719 1.719 0 00-1.719-1.718h-6.875a1.718 1.718 0 00-1.719 1.718v1.3l-.916-.916a1.719 1.719 0 00-2.43 0l-4.864 4.864a1.72 1.72 0 000 2.43l.916.916h-1.3a1.718 1.718 0 00-1.718 1.719V48.8a1.719 1.719 0 001.719 1.719h1.299l-.916.916a1.719 1.719 0 000 2.43l4.864 4.864a1.719 1.719 0 002.43 0l.916-.916v1.3a1.719 1.719 0 001.72 1.718h6.874a1.718 1.718 0 001.719-1.719v-1.3l.916.917a1.719 1.719 0 002.43 0l4.864-4.864a1.719 1.719 0 000-2.43l-.916-.916h1.3a1.718 1.718 0 001.718-1.72v-6.874a1.719 1.719 0 00-1.718-1.719zm-1.72 6.875h-3.729a1.719 1.719 0 00-1.215 2.934l2.635 2.635-2.434 2.434-2.635-2.635a1.719 1.719 0 00-2.934 1.215v3.73h-3.437v-3.73a1.719 1.719 0 00-2.934-1.215l-2.635 2.635-2.434-2.434 2.635-2.635a1.72 1.72 0 00-1.215-2.934h-3.73v-3.437h3.73a1.72 1.72 0 001.215-2.934l-2.635-2.635 2.434-2.434 2.635 2.635a1.719 1.719 0 002.934-1.215v-3.73h3.437v3.73a1.718 1.718 0 002.934 1.215l2.635-2.635 2.434 2.434-2.635 2.635a1.72 1.72 0 001.215 2.934h3.73v3.437z" fill="#204782"/><path d="M55.723 40.206a5.157 5.157 0 100 10.314 5.157 5.157 0 000-10.314zm0 6.875a1.718 1.718 0 110-3.436 1.718 1.718 0 010 3.436zM50.566 10.987h3.438v3.438h-3.438v-3.438zM57.441 10.987h3.438v3.438H57.44v-3.438zM50.566 91.769H60.88v3.437H50.566V91.77z" fill="#204782"/></g><defs><clipPath id="clip0"><path fill="#fff" d="M.5.272h110v110H.5z"/></clipPath></defs></svg>