
<svg class="icon" width="32" height="32" aria-hidden="true">
        <symbol id="icon-forms" viewBox="0 0 64 64">
      <rect x="2.91" y="2.79" width="32" height="23.66" rx=".75" ry=".75" fill="#ef5c8a"></rect>
      <path fill="#ab4b71" d="M18.91 19.1L2.65 3.81l1.12-1.19 15.14 14.23L33.17 3.44l1.12 1.2L18.91 19.1z"></path>
      <circle cx="3.21" cy="3.22" r="3.21" fill="#ab4b71"></circle>
      <path d="M20.19 47.7H9.51a2.46 2.46 0 0 1-2.46-2.46v-18.8h2.46v18.8h10.68z" fill="#fa6e84"></path>
      <path d="M64 21.42v5.72H20.19v-5.72a1.23 1.23 0 0 1 1.23-1.24h41.35A1.24 1.24 0 0 1 64 21.42z" fill="#ab4b71"></path>
      <path d="M64 27.14v35.62A1.24 1.24 0 0 1 62.77 64H21.42a1.22 1.22 0 0 1-1.23-1.23V27.14z" fill="#fa6e84"></path>
      <circle cx="24.34" cy="23.66" r="1.38" fill="#fa6e84"></circle>
      <path d="M33.56 54l-6.71-6.71a2.46 2.46 0 0 1 0-3.48l6.71-6.72 1.75 1.74-6.72 6.72 6.72 6.71zm17.06 0l-1.74-1.74 6.72-6.71-6.72-6.72 1.74-1.74 6.72 6.72a2.46 2.46 0 0 1 0 3.48zm-13.035204.482244l6.82578-18.692745 2.31076.84379-6.825779 18.692745z" fill="#fff"></path>
    </symbol>
      </svg>
