<svg class="icon" width="32" height="32" aria-hidden="true">
       
    <symbol id="icon-identity" viewBox="0 0 64 64">
      <circle cx="17.34" cy="17.9" r="14.98" fill="#008ac4"></circle>
      <path d="M23.41 24.84H11.26s-.48-6.73 6.08-6.73 6.07 6.73 6.07 6.73z" fill="#006dad"></path>
      <circle cx="17.34" cy="12.49" r="3.15" fill="#006dad"></circle>
      <path d="M63.89 22.22v5.62h-43v-5.62A1.21 1.21 0 0 1 22.13 21h40.56a1.21 1.21 0 0 1 1.2 1.22z" fill="#006dad"></path>
      <path d="M63.89 27.84v35a1.21 1.21 0 0 1-1.2 1.16H22.13a1.21 1.21 0 0 1-1.21-1.21V27.84z" fill="#3fb1e0"></path>
      <path fill="#fff" d="M28.91 41.1h1.61v3.29h-1.61z"></path>
      <path fill="#fff" d="M27.07894 46.515732l1.995528-2.615715 1.280031.976535-1.995528 2.615716z"></path>
      <path fill="#fff" d="M29.0694 44.5744l1.2719-.9821 2.0069 2.5991-1.2719.9821z"></path>
      <path fill="#fff" d="M26.33774 44.115943l.509795-1.527157 3.120713 1.041754-.509795 1.527157z"></path>
      <path fill="#fff" d="M29.457687 43.638998l3.120894-1.04121.509528 1.527247-3.120894 1.04121zM25.08 49.93h9.29v1.61h-9.29zm17-8.83h1.61v3.29h-1.61z"></path>
      <path fill="#fff" d="M40.24712 46.514921l1.995528-2.615715 1.28003.976535-1.995528 2.615715z"></path>
      <path fill="#fff" d="M42.1737 44.5307l1.2719-.9821 2.0069 2.5991-1.2719.9821z"></path>
      <path fill="#fff" d="M39.507923 44.113606l.509794-1.527157 3.120713 1.041754-.509794 1.527157z"></path>
      <path fill="#fff" d="M42.630751 43.630996l3.120895-1.041209.509528 1.527246-3.120895 1.04121zM38.24 49.93h9.29v1.61h-9.29zm13.17 0h9.29v1.61h-9.29zm3.55-2.06l-2.94-2.94 1.14-1.14 1.8 1.8 4.78-4.78 1.14 1.14-5.92 5.92z"></path>
      <circle cx="24.98" cy="24.42" r="1.35" fill="#3fb1e0"></circle>
      <path d="M10.07 7.66h-1v-4.5C9.05 1.21 7.11 0 5.31 0S1.57 1.21 1.57 3.16v4.5h-1a.43.43 0 0 0-.44.44V16a.44.44 0 0 0 .44.45h9.52a.45.45 0 0 0 .45-.45V8.1a.44.44 0 0 0-.47-.44zM4 3.16c0-.39.74-.74 1.32-.74s1.33.35 1.33.74v4.5H4z" fill="#006dad"></path>
    </symbol>
      </svg>