<svg width="139" height="138" viewBox="0 0 139 138" fill="none" xmlns="http://www.w3.org/2000/svg">
<g filter="url(#filter0_d)">
<path d="M69.4625 120.348C100.225 120.348 125.162 95.4102 125.162 64.6481C125.162 33.8859 100.225 8.94824 69.4625 8.94824C38.7004 8.94824 13.7627 33.8859 13.7627 64.6481C13.7627 95.4102 38.7004 120.348 69.4625 120.348Z" fill="white"/>
<path fill-rule="evenodd" clip-rule="evenodd" d="M79.1032 38.9407L70.534 54.151L61.5363 38.9407H32.6152L70.534 104.709L108.238 38.9407H93.0281H79.1032Z" fill="#41B883"/>
<path fill-rule="evenodd" clip-rule="evenodd" d="M47.6113 38.9407L70.534 78.359L93.0281 38.9407H108.024L70.534 104.709L32.6152 38.9407H47.6113Z" fill="#41B883"/>
<path fill-rule="evenodd" clip-rule="evenodd" d="M61.5363 38.9404L70.3197 54.1508L78.8889 38.9404H93.0281L70.5339 78.573L47.6113 38.9404H61.5363Z" fill="#35495E"/>
</g>
<defs>
<filter id="filter0_d" x="0.90889" y="0.379038" width="137.107" height="137.107" filterUnits="userSpaceOnUse" color-interpolation-filters="sRGB">
<feFlood flood-opacity="0" result="BackgroundImageFix"/>
<feColorMatrix in="SourceAlpha" type="matrix" values="0 0 0 0 0 0 0 0 0 0 0 0 0 0 0 0 0 0 127 0"/>
<feOffset dy="4.2846"/>
<feGaussianBlur stdDeviation="6.4269"/>
<feColorMatrix type="matrix" values="0 0 0 0 0 0 0 0 0 0 0 0 0 0 0 0 0 0 0.25 0"/>
<feBlend mode="normal" in2="BackgroundImageFix" result="effect1_dropShadow"/>
<feBlend mode="normal" in="SourceGraphic" in2="effect1_dropShadow" result="shape"/>
</filter>
</defs>
</svg>
