<svg width="95" height="95" viewBox="0 0 95 95" fill="none" xmlns="http://www.w3.org/2000/svg">
<g filter="url(#filter0_d)">
<path d="M47.269 77.1435C66.1996 77.1435 81.5458 61.7972 81.5458 42.8667C81.5458 23.9361 66.1996 8.58984 47.269 8.58984C28.3384 8.58984 12.9922 23.9361 12.9922 42.8667C12.9922 61.7972 28.3384 77.1435 47.269 77.1435Z" fill="white"/>
<path opacity="0.1" fill-rule="evenodd" clip-rule="evenodd" d="M53.3744 23.4788C56.3736 24.6571 58.5159 26.2638 58.1946 27.1207L57.9804 27.335C57.9804 27.335 56.5879 28.5132 56.3736 29.1559L43.5198 62.0402C42.4487 64.3968 39.7708 65.575 37.3072 64.611C34.8435 63.7541 33.6653 61.0762 34.5222 58.6126L47.376 25.8354C47.6973 25.0856 47.376 23.3717 47.376 23.3717V23.0504C47.8045 22.1934 50.4823 22.4077 53.3744 23.4788Z" fill="black"/>
<path fill-rule="evenodd" clip-rule="evenodd" d="M47.0539 22.729C47.3753 21.8721 50.0531 22.0863 52.9452 23.2646C55.9445 24.3357 58.0868 25.9424 57.7654 26.7994L57.5512 27.0136C57.5512 27.0136 56.1587 28.299 55.9445 28.9417L43.0907 61.7189C42.0195 64.0754 39.3416 65.2537 36.878 64.3967C34.4143 63.4327 33.2361 60.7548 34.093 58.3983L46.9468 25.514C47.2681 24.7642 46.9468 23.0503 46.9468 23.0503V22.8361L47.0539 22.729Z" fill="url(#paint0_linear)"/>
<path fill-rule="evenodd" clip-rule="evenodd" d="M51.1257 37.5109C51.1257 37.5109 49.3048 39.5461 47.698 40.1887C46.0913 40.9385 44.913 40.7243 43.4134 41.5812C42.0209 42.4382 41.2711 43.6164 41.2711 43.6164L35.1656 58.8268C34.5229 60.6477 35.4869 62.5758 37.3079 63.2185H37.415C39.236 63.8612 41.164 62.8971 41.8067 61.1833L51.0186 37.618L51.1257 37.5109Z" fill="url(#paint1_linear)"/>
<path fill-rule="evenodd" clip-rule="evenodd" d="M51.982 25.7282C50.0539 24.9784 48.7685 24.0144 48.9827 23.5859C49.197 23.1575 50.8037 23.2646 52.6247 23.9073C54.4456 24.6571 55.731 25.6211 55.6239 26.0496C55.4096 26.5852 53.8029 26.3709 51.982 25.7282Z" fill="#333333"/>
<path opacity="0.3" fill-rule="evenodd" clip-rule="evenodd" d="M49.0902 27.0137L36.5577 59.1482C35.915 61.0763 36.5577 63.2186 38.1644 64.5039C37.736 64.5039 37.2004 64.3968 36.7719 64.1826C34.4154 63.3257 33.13 60.6478 34.094 58.2913L46.9479 25.5141C47.1621 24.7643 46.9479 23.0504 46.9479 23.0504C47.3763 25.5141 49.0902 27.0137 49.0902 27.0137Z" fill="white"/>
<g opacity="0.5">
<path opacity="0.5" d="M42.7699 45.2231C43.3615 45.2231 43.841 44.7435 43.841 44.152C43.841 43.5604 43.3615 43.0808 42.7699 43.0808C42.1783 43.0808 41.6987 43.5604 41.6987 44.152C41.6987 44.7435 42.1783 45.2231 42.7699 45.2231Z" fill="white"/>
<path opacity="0.5" d="M45.2337 47.7938C45.8253 47.7938 46.3049 47.3142 46.3049 46.7226C46.3049 46.1311 45.8253 45.6515 45.2337 45.6515C44.6422 45.6515 44.1626 46.1311 44.1626 46.7226C44.1626 47.3142 44.6422 47.7938 45.2337 47.7938Z" fill="white"/>
<path opacity="0.5" d="M41.4847 51.0073C42.0763 51.0073 42.5559 50.5277 42.5559 49.9361C42.5559 49.3446 42.0763 48.865 41.4847 48.865C40.8931 48.865 40.4136 49.3446 40.4136 49.9361C40.4136 50.5277 40.8931 51.0073 41.4847 51.0073Z" fill="white"/>
<path opacity="0.5" d="M39.7709 52.9353C40.3624 52.9353 40.842 52.4557 40.842 51.8641C40.842 51.2725 40.3624 50.793 39.7709 50.793C39.1793 50.793 38.6997 51.2725 38.6997 51.8641C38.6997 52.4557 39.1793 52.9353 39.7709 52.9353Z" fill="white"/>
<path opacity="0.5" d="M42.0204 57.0058C42.6119 57.0058 43.0915 56.5263 43.0915 55.9347C43.0915 55.3431 42.6119 54.8635 42.0204 54.8635C41.4288 54.8635 40.9492 55.3431 40.9492 55.9347C40.9492 56.5263 41.4288 57.0058 42.0204 57.0058Z" fill="white"/>
</g>
</g>
<defs>
<filter id="filter0_d" x="0.138382" y="0.0206399" width="94.2612" height="94.2612" filterUnits="userSpaceOnUse" color-interpolation-filters="sRGB">
<feFlood flood-opacity="0" result="BackgroundImageFix"/>
<feColorMatrix in="SourceAlpha" type="matrix" values="0 0 0 0 0 0 0 0 0 0 0 0 0 0 0 0 0 0 127 0"/>
<feOffset dy="4.2846"/>
<feGaussianBlur stdDeviation="6.4269"/>
<feColorMatrix type="matrix" values="0 0 0 0 0 0 0 0 0 0 0 0 0 0 0 0 0 0 0.25 0"/>
<feBlend mode="normal" in2="BackgroundImageFix" result="effect1_dropShadow"/>
<feBlend mode="normal" in="SourceGraphic" in2="effect1_dropShadow" result="shape"/>
</filter>
<linearGradient id="paint0_linear" x1="43.8638" y1="41.6628" x2="48.2138" y2="43.3119" gradientUnits="userSpaceOnUse">
<stop stop-color="#919191"/>
<stop offset="1" stop-color="white"/>
</linearGradient>
<linearGradient id="paint1_linear" x1="41.7848" y1="48.1478" x2="44.8195" y2="49.291" gradientUnits="userSpaceOnUse">
<stop stop-color="#990000"/>
<stop offset="1" stop-color="#E80000"/>
</linearGradient>
</defs>
</svg>
